<?xml version="1.0" encoding="utf-8"?>
<!-- Generator: Adobe Illustrator 25.2.1, SVG Export Plug-In . SVG Version: 6.00 Build 0)  -->
<svg version="1.1" id="Layer_1" xmlns="http://www.w3.org/2000/svg" xmlns:xlink="http://www.w3.org/1999/xlink" x="0px" y="0px"
	 viewBox="0 0 1700 200" style="enable-background:new 0 0 1700 200;" xml:space="preserve">
<style type="text/css">
	.st0{fill:none;}
	.st1{font-family:'Montserrat-Regular';}
	.st2{font-size:105px;}
</style>
<image style="overflow:visible;enable-background:new    ;" width="256" height="256" xlink:href="C81B2F6F.png"  transform="matrix(0.4675 0 0 0.4675 10.564 40.1569)">
</image>
<g>
	<rect x="157.7" y="64.6" class="st0" width="934.5" height="108.7"/>
	<path d="M180.2,135.3c-5.8-3.1-10.3-7.4-13.6-12.9s-5-11.7-5-18.7c0-6.9,1.6-13.1,5-18.6c3.3-5.5,7.8-9.8,13.6-12.9
		s12.2-4.7,19.4-4.7c6.1,0,11.6,1.1,16.5,3.2s9,5.2,12.4,9.2L218,89.6c-4.7-5.5-10.6-8.2-17.6-8.2c-4.3,0-8.2,0.9-11.6,2.9
		c-3.4,1.9-6.1,4.5-8,7.9s-2.9,7.3-2.9,11.6c0,4.3,1,8.2,2.9,11.6s4.6,6,8,7.9s7.3,2.9,11.6,2.9c7,0,12.9-2.8,17.6-8.3l10.4,9.6
		c-3.3,4.1-7.5,7.2-12.4,9.3s-10.4,3.2-16.5,3.2C192.4,140,185.9,138.4,180.2,135.3z"/>
	<path d="M252.1,135.3c-5.8-3.1-10.4-7.5-13.7-13s-5-11.7-5-18.5c0-6.9,1.6-13,5-18.5c3.3-5.5,7.9-9.8,13.7-13
		c5.8-3.1,12.4-4.7,19.7-4.7c7.3,0,13.8,1.6,19.6,4.7c5.8,3.1,10.4,7.5,13.7,13c3.3,5.5,5,11.7,5,18.5c0,6.9-1.7,13-5,18.5
		s-7.9,9.8-13.7,13c-5.8,3.1-12.3,4.7-19.6,4.7C264.4,140,257.9,138.4,252.1,135.3z M282.9,123.3c3.3-1.9,6-4.5,7.9-7.9
		s2.9-7.3,2.9-11.6c0-4.3-1-8.2-2.9-11.6s-4.5-6-7.9-7.9c-3.3-1.9-7.1-2.9-11.2-2.9s-7.9,0.9-11.2,2.9c-3.3,1.9-6,4.5-7.9,7.9
		s-2.9,7.3-2.9,11.6c0,4.3,1,8.2,2.9,11.6s4.5,6,7.9,7.9c3.3,1.9,7.1,2.9,11.2,2.9C275.8,126.2,279.6,125.2,282.9,123.3z"/>
	<path d="M385.9,138.8l-0.1-42l-20.6,34.6h-7.3l-20.5-33.7v41.1h-15.2v-70h13.4l26.2,43.5l25.8-43.5h13.3l0.2,70L385.9,138.8
		L385.9,138.8z"/>
	<path d="M464.2,71.9c4.6,2.1,8.1,5,10.6,8.8s3.7,8.3,3.7,13.5c0,5.1-1.2,9.6-3.7,13.5c-2.5,3.8-6,6.8-10.6,8.8s-9.9,3-16.1,3H434
		v19.3h-16.2v-70H448C454.2,68.8,459.6,69.8,464.2,71.9z M458.2,103.1c2.5-2.1,3.8-5.1,3.8-9s-1.3-6.9-3.8-9S452,82,447.1,82h-13.2
		v24.3h13.2C452,106.3,455.7,105.2,458.2,103.1z"/>
	<path d="M532.5,123.8H500l-6.2,15h-16.6l31.2-70h16l31.3,70h-17L532.5,123.8z M527.4,111.5l-11.1-26.8l-11.1,26.8H527.4z"/>
	<path d="M570,137.7c-5.2-1.5-9.3-3.5-12.5-5.9l5.5-12.2c3,2.2,6.6,4,10.7,5.3c4.1,1.3,8.3,2,12.4,2c4.6,0,8-0.7,10.2-2
		c2.2-1.4,3.3-3.2,3.3-5.5c0-1.7-0.7-3-2-4.2c-1.3-1.1-3-2-5-2.6c-2-0.7-4.8-1.4-8.2-2.2c-5.3-1.3-9.7-2.5-13.1-3.8
		c-3.4-1.3-6.3-3.3-8.8-6.1c-2.4-2.8-3.6-6.5-3.6-11.2c0-4.1,1.1-7.8,3.3-11.1c2.2-3.3,5.5-5.9,10-7.8c4.4-1.9,9.8-2.9,16.2-2.9
		c4.5,0,8.8,0.5,13.1,1.6s8,2.6,11.2,4.6l-5,12.3c-6.5-3.7-12.9-5.5-19.4-5.5c-4.5,0-7.9,0.7-10,2.2c-2.2,1.5-3.2,3.4-3.2,5.8
		s1.2,4.2,3.8,5.4c2.5,1.2,6.3,2.3,11.5,3.5c5.3,1.3,9.7,2.5,13.1,3.8c3.4,1.3,6.3,3.3,8.8,6c2.4,2.7,3.7,6.4,3.7,11.1
		c0,4-1.1,7.7-3.3,11s-5.6,5.9-10.1,7.8c-4.5,1.9-9.9,2.9-16.3,2.9C580.5,140,575.1,139.2,570,137.7z"/>
	<path d="M633.8,137.7c-5.2-1.5-9.3-3.5-12.5-5.9l5.5-12.2c3,2.2,6.6,4,10.7,5.3c4.1,1.3,8.3,2,12.4,2c4.6,0,8-0.7,10.2-2
		c2.2-1.4,3.3-3.2,3.3-5.5c0-1.7-0.7-3-2-4.2c-1.3-1.1-3-2-5-2.6c-2-0.7-4.8-1.4-8.2-2.2c-5.3-1.3-9.7-2.5-13.1-3.8
		c-3.4-1.3-6.3-3.3-8.8-6.1c-2.4-2.8-3.6-6.5-3.6-11.2c0-4.1,1.1-7.8,3.3-11.1c2.2-3.3,5.5-5.9,10-7.8c4.4-1.9,9.8-2.9,16.2-2.9
		c4.5,0,8.8,0.5,13.1,1.6s8,2.6,11.2,4.6l-5,12.3c-6.5-3.7-12.9-5.5-19.4-5.5c-4.5,0-7.9,0.7-10,2.2c-2.2,1.5-3.2,3.4-3.2,5.8
		s1.2,4.2,3.8,5.4c2.5,1.2,6.3,2.3,11.5,3.5c5.3,1.3,9.7,2.5,13.1,3.8c3.4,1.3,6.3,3.3,8.8,6c2.4,2.7,3.7,6.4,3.7,11.1
		c0,4-1.1,7.7-3.3,11s-5.6,5.9-10.1,7.8c-4.5,1.9-9.9,2.9-16.3,2.9C644.3,140,638.9,139.2,633.8,137.7z"/>
	<path d="M719.9,68.8h7.4v63.6h39.2v6.4h-46.6L719.9,68.8L719.9,68.8z"/>
	<path d="M828.3,132.4v6.4h-49.5v-70h48v6.4h-40.6v24.9h36.2v6.3h-36.2v26H828.3z"/>
	<path d="M894.6,103.8h7.1v26.7c-3.3,2.9-7.1,5.1-11.6,6.6s-9.2,2.3-14.1,2.3c-7,0-13.3-1.5-18.9-4.6c-5.6-3.1-10-7.3-13.2-12.8
		c-3.2-5.4-4.8-11.5-4.8-18.2s1.6-12.8,4.8-18.2c3.2-5.4,7.6-9.7,13.2-12.8c5.6-3.1,11.9-4.6,19-4.6c5.3,0,10.2,0.9,14.7,2.6
		s8.2,4.2,11.3,7.5l-4.6,4.7c-5.5-5.5-12.6-8.2-21.1-8.2c-5.7,0-10.8,1.2-15.3,3.8c-4.6,2.5-8.2,6-10.8,10.4s-3.9,9.4-3.9,14.8
		c0,5.5,1.3,10.4,3.9,14.8c2.6,4.4,6.2,7.9,10.7,10.4s9.6,3.8,15.3,3.8c7.2,0,13.3-1.8,18.3-5.4L894.6,103.8L894.6,103.8z"/>
	<path d="M966.5,120.1h-39l-8.4,18.7h-7.7l32-70h7.3l32,70h-7.8L966.5,120.1z M963.8,114.1L947,76.5l-16.8,37.6H963.8z"/>
	<path d="M994.3,68.8h7.4v63.6h39.2v6.4h-46.6L994.3,68.8L994.3,68.8z"/>
</g>
<image style="overflow:visible;enable-background:new    ;" width="256" height="256" xlink:href="C81B2F6A.png"  transform="matrix(0.4602 0 0 0.4602 6.5014 41.0943)">
</image>
<text transform="matrix(1 0 0 1 1073.2002 140.0002)" class="st1 st2">SOLUTIONS</text>
</svg>
